<svg width="12" height="14" viewBox="0 0 12 14" fill="none" xmlns="http://www.w3.org/2000/svg">
<path d="M11.088 11.668C11.244 11.836 11.322 12.022 11.322 12.226C11.322 12.454 11.232 12.658 11.052 12.838C10.872 13.006 10.668 13.09 10.44 13.09C10.188 13.09 9.97195 12.982 9.79195 12.766L5.88595 7.852L1.96195 12.766C1.78195 12.982 1.57195 13.09 1.33195 13.09C1.10395 13.09 0.899951 13.006 0.719951 12.838C0.539951 12.658 0.449951 12.454 0.449951 12.226C0.449951 12.034 0.521951 11.848 0.665951 11.668L4.80595 6.538L0.863951 1.642C0.719951 1.486 0.647951 1.3 0.647951 1.084C0.647951 0.855999 0.731951 0.657999 0.899951 0.489999C1.07995 0.309999 1.28395 0.219999 1.51195 0.219999C1.76395 0.219999 1.97995 0.327999 2.15995 0.543999L5.88595 5.242L9.61195 0.543999C9.77995 0.327999 9.99595 0.219999 10.26 0.219999C10.488 0.219999 10.692 0.309999 10.872 0.489999C11.052 0.657999 11.142 0.855999 11.142 1.084C11.142 1.288 11.064 1.474 10.908 1.642L6.96595 6.538L11.088 11.668Z" fill="white" fill-opacity="0.5"/>
</svg>
